<?xml version="1.0" encoding="UTF-8"?><svg id="Layer_1" xmlns="http://www.w3.org/2000/svg" viewBox="0 0 2376 107.5"><defs><style>.cls-1{fill:#6539a4;}.cls-2{fill:#e0d7ed;stroke:#662d91;}.cls-2,.cls-3{stroke-miterlimit:10;}.cls-3{fill:none;stroke:#6539a4;stroke-width:2px;}</style></defs><g><path class="cls-1" d="M120.02,46.94h2.08l.32,7.68h.32c4.56-4.96,9.12-8.64,15.36-8.64,9.36,0,13.92,4.88,13.92,15.36v23.84h-2.4v-23.52c0-9.04-3.44-13.44-11.52-13.44-5.76,0-9.76,3.04-15.68,9.28v27.68h-2.4V46.94Z"/><path class="cls-1" d="M165.62,66.14c0-12.48,9.12-20.16,19.04-20.16s16.96,6.56,16.96,17.6c0,.8,0,1.6-.16,2.56h-35.04v-2.24h34.4l-1.44,1.28c0-11.52-6.08-16.96-14.72-16.96s-16.48,6.56-16.48,17.76,8.16,17.92,17.44,17.92c5.44,0,9.68-1.76,13.28-4.32l1.12,2.08c-3.36,2.16-7.44,4.48-14.4,4.48-10.88,0-20-7.52-20-20Z"/><path class="cls-1" d="M214.42,70.78v-23.84h2.4v23.52c0,9.04,3.44,13.44,11.52,13.44,5.76,0,10.08-2.96,15.68-9.28v-27.68h2.4v38.24h-2.08l-.32-7.68h-.32c-4.24,4.96-9.12,8.64-15.36,8.64-9.36,0-13.92-4.88-13.92-15.36Z"/><path class="cls-1" d="M268.82,46.94h2.08l.32,9.6h.16c4.16-6.08,10.48-10.56,18.32-10.56,2.48,0,5.28,.32,7.76,1.6l-.8,2.24c-2.88-1.04-4.24-1.44-7.28-1.44-6.64,0-12.56,3.36-18.16,12.32v24.48h-2.4V46.94Z"/><path class="cls-1" d="M310.9,75.82c0-8.56,8.8-12.56,29.92-14.48,0-6.72-2.56-13.12-11.84-13.12-6.08,0-11.92,3.2-14.88,5.44l-1.28-1.92c2.72-2.08,9.44-5.76,16.32-5.76,10.16,0,14.08,6.72,14.08,14.4v24.8h-2.08l-.32-5.92h-.16c-4.48,3.6-10.56,6.88-16.32,6.88-6.72,0-13.44-3.04-13.44-10.32Zm29.92,.72v-13.12c-20.64,1.92-27.36,5.76-27.36,12.32,0,5.92,5.6,8.16,11.04,8.16,5.12,0,10.56-2.48,16.32-7.36Z"/><path class="cls-1" d="M373.62,74.14V29.66h-14.88v-2.24h17.28v47.2c0,6.24,2.88,9.28,8.64,9.28,2.56,0,5.28-.64,8.16-2.08l.96,1.92c-3.2,1.6-5.6,2.4-9.28,2.4-6.88,0-10.88-3.44-10.88-12Z"/><path class="cls-1" d="M407.06,57.66h32.32v2.24h-32.32v-2.24Z"/><path class="cls-1" d="M452.82,66.14c0-12.32,8.56-20.16,18.24-20.16,4.88,0,8.96,2.08,12.96,5.6h.16l-.16-8V27.42h2.4v57.76h-2.08l-.32-5.92h-.16c-3.44,3.6-8.48,6.88-14.08,6.88-10.08,0-16.96-7.04-16.96-20Zm31.2,10.24v-22.08c-4.64-4.4-8.88-6.08-13.12-6.08-8.64,0-15.52,8-15.52,17.92,0,10.56,5.44,17.76,14.56,17.76,4.72,0,9.52-2.72,14.08-7.52Z"/><path class="cls-1" d="M522.9,49.18h-19.68v-2.24h22.08v38.24h-2.4V49.18Zm-2.88-15.36c0-2.08,1.44-3.36,3.2-3.36s3.2,1.28,3.2,3.36-1.44,3.36-3.2,3.36-3.2-1.28-3.2-3.36Z"/><path class="cls-1" d="M552.82,47.26l11.68-.32h20.64v2.24h-32.32v-1.92Zm11.68-5.44c0-9.76,4.64-15.36,13.92-15.36,3.28,0,6.56,.48,10.56,2.4l-.96,1.92c-3.68-1.76-5.92-2.08-9.6-2.08-8.48,0-11.68,5.28-11.68,12.8v43.68h-2.24V41.82Z"/><path class="cls-1" d="M600.82,47.26l11.68-.32h20.64v2.24h-32.32v-1.92Zm11.68-5.44c0-9.76,4.64-15.36,13.92-15.36,3.28,0,6.56,.48,10.56,2.4l-.96,1.92c-3.68-1.76-5.92-2.08-9.6-2.08-8.48,0-11.68,5.28-11.68,12.8v43.68h-2.24V41.82Z"/><path class="cls-1" d="M645.62,66.14c0-12.48,9.12-20.16,19.04-20.16s16.96,6.56,16.96,17.6c0,.8,0,1.6-.16,2.56h-35.04v-2.24h34.4l-1.44,1.28c0-11.52-6.08-16.96-14.72-16.96s-16.48,6.56-16.48,17.76,8.16,17.92,17.44,17.92c5.44,0,9.68-1.76,13.28-4.32l1.12,2.08c-3.36,2.16-7.44,4.48-14.4,4.48-10.88,0-20-7.52-20-20Z"/><path class="cls-1" d="M724.02,86.94l.16-7.84h-.16c-3.68,3.84-8.64,7.04-14.24,7.04-10.08,0-16.96-7.04-16.96-20s8.56-20.16,18.24-20.16c4.96,0,8.88,2.08,12.8,5.44h.16l.32-4.48h2.08v56h-2.4v-16Zm0-10.56v-22.08c-4.64-4.4-8.88-6.08-13.12-6.08-8.64,0-15.52,8-15.52,17.92,0,10.56,5.44,17.76,14.56,17.76,4.72,0,9.52-2.72,14.08-7.52Z"/><path class="cls-1" d="M742.09,80.06l1.44-1.92c4.16,3.36,9.2,5.76,17.6,5.76s12.64-3.84,12.64-8.16c0-3.68-1.28-6.72-14.08-9.28-9.6-1.92-15.36-4.96-15.36-10.56,0-5.28,4.4-9.92,14.56-9.92,4.88,0,10.8,1.92,14.4,4.64l-1.44,1.92c-3.36-2.56-7.76-4.32-13.12-4.32-9.04,0-11.84,3.68-11.84,7.52,0,4.32,4.16,6.56,13.12,8.4,13.44,2.8,16.32,5.84,16.32,11.44s-5.6,10.56-15.36,10.56c-8,0-14.4-2.88-18.88-6.08Z"/></g><g><g><path class="cls-3" d="M83.92,33.21c1.44,1.48,13.89,14.74,11,34-.16,1.07-3.52,21.1-22,30-15.48,7.45-36.92,4.83-49-11-11.41-14.94-10.43-36.37,2.5-50.5,8.14-8.14,16.28-16.28,24.43-24.43"/><polygon class="cls-1" points="53.34 15.84 55.92 6.21 46.29 8.79 53.34 15.84"/></g><circle class="cls-2" cx="71.34" cy="21.38" r="5.9" transform="translate(48.64 92.32) rotate(-88.94)"/></g></svg>