<?xml version="1.0" encoding="UTF-8"?><svg id="Layer_1" xmlns="http://www.w3.org/2000/svg" viewBox="0 0 2376 107.5"><defs><style>.cls-1{fill:#6539a4;}.cls-2{fill:#e0d7ed;stroke:#662d91;}.cls-2,.cls-3{stroke-miterlimit:10;}.cls-3{fill:none;stroke:#6539a4;stroke-width:2px;}</style></defs><g><path class="cls-1" d="M119.66,46.77h2.99l.38,7.38h.32c4.43-4.76,8.97-8.34,15.17-8.34,9.32,0,13.79,5.03,13.79,15.45v23.93h-3.55v-23.46c0-8.58-3.2-12.72-10.8-12.72-5.46,0-9.22,2.84-14.75,8.65v27.53h-3.55V46.77Z"/><path class="cls-1" d="M165.36,66.01c0-12.52,9.21-20.2,19.26-20.2s17.18,6.76,17.18,17.77c0,1-.04,1.97-.2,2.95h-34.45v-3.02h32.92l-1.5,1.43c0-10.89-5.67-16.09-13.89-16.09s-15.65,6.26-15.65,17.04,7.73,17.18,16.83,17.18c5.22,0,9.31-1.67,12.89-4.15l1.47,2.69c-3.49,2.27-7.81,4.52-14.57,4.52-11.1,0-20.26-7.52-20.26-20.13Z"/><path class="cls-1" d="M214.14,70.69v-23.93h3.55v23.46c0,8.56,3.2,12.72,10.82,12.72,5.41,0,9.45-2.72,14.7-8.69v-27.48h3.55v38.41h-3.01l-.39-7.44h-.32c-4.15,4.85-8.95,8.4-15.12,8.4-9.32,0-13.79-5.03-13.79-15.45Z"/><path class="cls-1" d="M268.28,46.77h3.01l.41,9.49h.16c4.14-6.15,10.39-10.45,18.06-10.45,2.59,0,5.28,.34,7.74,1.6l-1,3.17c-2.84-1-4.22-1.4-7.26-1.4-6.42,0-12.23,3.25-17.57,11.99v24h-3.55V46.77Z"/><path class="cls-1" d="M310.55,75.62c0-8.6,8.63-12.67,29.46-14.5-.07-6.33-2.63-12.21-11.43-12.21-5.8,0-11.4,2.98-14.53,5.22l-1.65-2.62c3.07-2.21,9.74-5.72,16.6-5.72,10.29,0,14.56,6.61,14.56,14.84v24.54h-3.01l-.39-5.75h-.18c-4.41,3.54-10.36,6.71-16.04,6.71-6.87,0-13.4-3.32-13.4-10.52Zm29.46,.5v-12.29c-19.55,1.75-25.82,5.43-25.82,11.6,0,5.51,5.17,7.62,10.34,7.62s10.06-2.37,15.47-6.92Z"/><path class="cls-1" d="M372.88,73.6V30.72h-14.58v-3.09h18.13v46.44c0,6.07,2.92,8.93,8.38,8.93,2.47,0,5.11-.62,7.92-1.99l1.16,2.75c-3.31,1.58-5.75,2.38-9.58,2.38-7.27,0-11.42-3.81-11.42-12.54Z"/><path class="cls-1" d="M406.78,57.29h32.89v2.98h-32.89v-2.98Z"/><path class="cls-1" d="M452.6,66.05c0-12.41,8.52-20.25,18.07-20.25,4.81,0,8.76,2.02,12.61,5.43h.16l-.2-7.76v-15.83h3.55v57.54h-2.99l-.38-5.7h-.18c-3.38,3.51-8.31,6.66-13.71,6.66-10.08,0-16.92-7.13-16.92-20.09Zm30.64,9.89v-21.34c-4.34-4.1-8.32-5.65-12.32-5.65-8.12,0-14.61,7.44-14.61,17.07,0,10.21,5.14,16.96,13.71,16.96,4.48,0,8.96-2.5,13.21-7.04Z"/><path class="cls-1" d="M522.23,49.85h-19.22v-3.09h22.78v38.41h-3.55V49.85Zm-2.82-16.25c0-2.34,1.66-3.84,3.77-3.84s3.77,1.5,3.77,3.84-1.66,3.84-3.77,3.84-3.77-1.48-3.77-3.84Z"/><path class="cls-1" d="M552.45,47.11l11.57-.34h21.18v3.09h-32.76v-2.75Zm11.53-4.96c0-9.67,4.73-15.47,14.4-15.47,3.43,0,6.82,.55,10.73,2.36l-1.11,2.75c-3.55-1.65-5.85-2.01-9.45-2.01-8.07,0-11.16,4.91-11.16,12.08v43.33h-3.41V42.15Z"/><path class="cls-1" d="M600.45,47.11l11.57-.34h21.18v3.09h-32.76v-2.75Zm11.53-4.96c0-9.67,4.73-15.47,14.4-15.47,3.43,0,6.82,.55,10.73,2.36l-1.11,2.75c-3.55-1.65-5.85-2.01-9.45-2.01-8.07,0-11.16,4.91-11.16,12.08v43.33h-3.41V42.15Z"/><path class="cls-1" d="M645.36,66.01c0-12.52,9.21-20.2,19.26-20.2s17.18,6.76,17.18,17.77c0,1-.04,1.97-.2,2.95h-34.45v-3.02h32.92l-1.5,1.43c0-10.89-5.67-16.09-13.89-16.09s-15.65,6.26-15.65,17.04,7.73,17.18,16.83,17.18c5.22,0,9.31-1.67,12.89-4.15l1.47,2.69c-3.49,2.27-7.81,4.52-14.57,4.52-11.1,0-20.26-7.52-20.26-20.13Z"/><path class="cls-1" d="M723.23,87.07l.2-7.67h-.16c-3.55,3.69-8.38,6.74-13.76,6.74-10.08,0-16.92-7.13-16.92-20.09s8.52-20.25,18.07-20.25c4.89,0,8.75,2.02,12.58,5.4h.18l.41-4.44h2.95v55.8h-3.55v-15.5Zm0-11.12v-21.34c-4.34-4.1-8.32-5.65-12.32-5.65-8.12,0-14.61,7.44-14.61,17.07,0,10.21,5.14,16.96,13.71,16.96,4.48,0,8.96-2.5,13.21-7.04Z"/><path class="cls-1" d="M741.77,80.06l1.88-2.59c4.25,3.32,9.35,5.63,17.41,5.63s11.86-3.54,11.86-7.57c0-3.48-1.35-6.26-13.54-8.71-9.75-1.96-15.32-5.11-15.32-10.78s4.7-10.22,15-10.22c5.16,0,11.08,2.03,14.75,4.73l-1.92,2.55c-3.42-2.54-7.85-4.25-13.1-4.25-8.37,0-11.06,3.4-11.06,7,0,4.06,3.94,6.08,12.64,7.88,13.29,2.8,16.23,5.88,16.23,11.59s-5.75,10.84-15.88,10.84c-7.89,0-14.4-2.86-18.95-6.08Z"/></g><g><g><path class="cls-3" d="M83.92,33.21c1.44,1.48,13.89,14.74,11,34-.16,1.07-3.52,21.1-22,30-15.48,7.45-36.92,4.83-49-11-11.41-14.94-10.43-36.37,2.5-50.5,8.14-8.14,16.28-16.28,24.43-24.43"/><polygon class="cls-1" points="53.34 15.84 55.92 6.21 46.29 8.79 53.34 15.84"/></g><circle class="cls-2" cx="71.34" cy="21.38" r="5.9" transform="translate(48.64 92.32) rotate(-88.94)"/></g></svg>