<?xml version="1.0" encoding="utf-8"?>
<!-- Generator: Adobe Illustrator 26.3.1, SVG Export Plug-In . SVG Version: 6.00 Build 0)  -->
<svg version="1.1" id="Layer_1" xmlns="http://www.w3.org/2000/svg" xmlns:xlink="http://www.w3.org/1999/xlink" x="0px" y="0px"
	 viewBox="0 0 800 800" style="enable-background:new 0 0 800 800;" xml:space="preserve">
<path d="M663.4,0H165c-35.9,0-51.6,26.6-51.6,51.6V151H86.1c-13.5,0-24.5,11-24.5,24.5c0,13.5,10.9,24.5,24.5,24.5h27.3v100.6H88.4
	c-13.5,0-24.5,11-24.5,24.5c0,13.5,11,24.5,24.5,24.5h25v101.1H87.9c-13.5,0-24.5,11-24.5,24.5c0,13.5,10.9,24.5,24.5,24.5h25.5
	v100.3H87.9c-13.5,0-24.5,11-24.5,24.5s10.9,24.5,24.5,24.5h25.5v101c0,41.4,32.4,50,50.4,50h499.6c41.4,0,75-33.6,75-75v-650
	C738.4,33.7,704.8,0.1,663.4,0L663.4,0z M163.4,750V649h26c13.5,0,24.5-11,24.5-24.5S202.9,600,189.4,600h-26V499.6h26
	c13.5,0,24.5-11,24.5-24.5c0-13.5-10.9-24.5-24.5-24.5h-26V349.5h26.6c13.5,0,24.5-10.9,24.5-24.5c0-13.5-10.9-24.5-24.5-24.5h-26.6
	V200h24.3c13.5,0,24.5-11,24.5-24.5S201.2,151,187.6,151h-24.3V51.5c0-0.6,0.1-1.1,0.1-1.5c0.4,0,0.9,0,1.5,0h398.4v700L163.4,750
	L163.4,750z M688.4,725c0,13.8-11.2,25-25,25h-50V50h50c13.8,0,25,11.2,25,25V725z"/>
</svg>
